<svg xmlns="http://www.w3.org/2000/svg" xmlns:xlink="http://www.w3.org/1999/xlink" width="40" height="40" viewBox="0 0 40 40">
  <defs>
    <clipPath id="clip-path">
      <rect id="Ret칙ngulo_23" data-name="Ret칙ngulo 23" width="40" height="40" transform="translate(323 10)" fill="#f18318" stroke="#707070" stroke-width="1"/>
    </clipPath>
  </defs>
  <g id="Grupo_de_m치scara_9" data-name="Grupo de m치scara 9" transform="translate(-323 -10)" clip-path="url(#clip-path)">
    <g id="fi-rr-shopping-cart" transform="translate(323.491 10)">
      <path id="Caminho_6" data-name="Caminho 6" d="M37.855,6.8A4.988,4.988,0,0,0,34.017,5H7.07L7,4.415A5,5,0,0,0,2.037,0h-.37a1.667,1.667,0,1,0,0,3.333h.37A1.667,1.667,0,0,1,3.692,4.8l2.293,19.5a8.333,8.333,0,0,0,8.277,7.362h17.4a1.667,1.667,0,1,0,0-3.333H14.262A5,5,0,0,1,9.562,25H29.428a8.333,8.333,0,0,0,8.2-6.856l1.308-7.256A4.99,4.99,0,0,0,37.855,6.8Zm-2.188,3.5-1.31,7.257a5,5,0,0,1-4.928,4.113H9.032L7.463,8.333H34.017a1.667,1.667,0,0,1,1.65,1.963Z" transform="translate(0)" fill="#f18318"/>
      <circle id="Elipse_3" data-name="Elipse 3" cx="3.333" cy="3.333" r="3.333" transform="translate(8.333 33.333)" fill="#f18318"/>
      <circle id="Elipse_4" data-name="Elipse 4" cx="3.333" cy="3.333" r="3.333" transform="translate(25 33.333)" fill="#f18318"/>
    </g>
  </g>
</svg>
